<svg width="21" height="21" viewBox="0 0 21 21" fill="none" xmlns="http://www.w3.org/2000/svg">
<path d="M1.24139 1.03448H2.87172C3.88365 1.03448 4.68006 1.93099 4.59573 2.96245L3.81805 12.5637C3.68687 14.135 4.89555 15.4846 6.43217 15.4846H16.4109C17.7601 15.4846 18.9407 14.3471 19.0437 12.9686L19.5497 5.73873C19.6621 4.13852 18.4816 2.83714 16.9168 2.83714H4.82061" stroke="#F7FFF2" stroke-width="1.30885" stroke-miterlimit="10" stroke-linecap="round" stroke-linejoin="round"/>
<path d="M14.5931 20.3142C15.24 20.3142 15.7643 19.7748 15.7643 19.1092C15.7643 18.4437 15.24 17.9042 14.5931 17.9042C13.9462 17.9042 13.4219 18.4437 13.4219 19.1092C13.4219 19.7748 13.9462 20.3142 14.5931 20.3142Z" stroke="#F7FFF2" stroke-width="1.30885" stroke-miterlimit="10" stroke-linecap="round" stroke-linejoin="round"/>
<path d="M7.09738 20.3142C7.74423 20.3142 8.26859 19.7748 8.26859 19.1092C8.26859 18.4437 7.74423 17.9042 7.09738 17.9042C6.45054 17.9042 5.92618 18.4437 5.92618 19.1092C5.92618 19.7748 6.45054 20.3142 7.09738 20.3142Z" stroke="#F7FFF2" stroke-width="1.30885" stroke-miterlimit="10" stroke-linecap="round" stroke-linejoin="round"/>
<path d="M7.80011 6.81841H19.0437" stroke="#F7FFF2" stroke-width="1.30885" stroke-miterlimit="10" stroke-linecap="round" stroke-linejoin="round"/>
</svg>